<svg width="73" height="83" viewBox="0 0 73 83" fill="none" xmlns="http://www.w3.org/2000/svg">
<path d="M36.5 0C25.0983 41.5 -9.10697 51.875 2.29478 83C25.0983 72.625 47.9017 72.625 70.7052 83C82.107 51.875 47.9017 41.5 36.5 0Z" fill="#66BB6A"/>
<path d="M13.2215 62C13.1121 61.6652 12.968 61.3653 12.789 61.1001C12.6133 60.8317 12.4028 60.603 12.1576 60.4141C11.9156 60.2251 11.6405 60.081 11.3323 59.9815C11.0241 59.8821 10.686 59.8324 10.3181 59.8324C9.71487 59.8324 9.16634 59.9882 8.6725 60.2997C8.17865 60.6113 7.7859 61.0703 7.49423 61.6768C7.20256 62.2834 7.05673 63.0275 7.05673 63.9091C7.05673 64.7907 7.20422 65.5348 7.4992 66.1413C7.79418 66.7479 8.19357 67.2069 8.69735 67.5185C9.20114 67.83 9.7679 67.9858 10.3976 67.9858C10.981 67.9858 11.4947 67.8615 11.9388 67.6129C12.3863 67.361 12.7343 67.0064 12.9829 66.549C13.2348 66.0883 13.3607 65.5464 13.3607 64.9233L13.7385 65.0028H10.676V63.9091H14.5539V65.0028C14.5539 65.8414 14.3749 66.5705 14.017 67.1903C13.6623 67.8101 13.1718 68.2907 12.5454 68.6321C11.9223 68.9702 11.2064 69.1392 10.3976 69.1392C9.49612 69.1392 8.70398 68.9271 8.02122 68.5028C7.34177 68.0786 6.81146 67.4754 6.43031 66.6932C6.05247 65.911 5.86355 64.983 5.86355 63.9091C5.86355 63.1037 5.97127 62.3795 6.1867 61.7365C6.40545 61.0902 6.71369 60.54 7.11142 60.0859C7.50914 59.6319 7.97979 59.2839 8.52335 59.0419C9.06691 58.8 9.66516 58.679 10.3181 58.679C10.855 58.679 11.3555 58.7602 11.8195 58.9226C12.2868 59.0817 12.7028 59.3087 13.0674 59.6037C13.4353 59.8954 13.7419 60.245 13.9871 60.6527C14.2324 61.0571 14.4014 61.5062 14.4942 62H13.2215Z" fill="white"/>
<path d="M16.5065 69V61.3636H17.64V62.517H17.7195C17.8588 62.1392 18.1106 61.8326 18.4752 61.5973C18.8398 61.362 19.2508 61.2443 19.7082 61.2443C19.7944 61.2443 19.9021 61.246 20.0313 61.2493C20.1606 61.2526 20.2584 61.2576 20.3247 61.2642V62.4574C20.2849 62.4474 20.1937 62.4325 20.0512 62.4126C19.912 62.3894 19.7645 62.3778 19.6088 62.3778C19.2375 62.3778 18.9061 62.4557 18.6144 62.6115C18.3261 62.764 18.0974 62.9761 17.9284 63.2479C17.7626 63.5163 17.6798 63.8229 17.6798 64.1676V69H16.5065Z" fill="white"/>
<path d="M24.6847 69.1591C23.949 69.1591 23.3142 68.9967 22.7806 68.6719C22.2503 68.3438 21.841 67.8864 21.5526 67.2997C21.2676 66.7098 21.1251 66.0237 21.1251 65.2415C21.1251 64.4593 21.2676 63.7699 21.5526 63.1733C21.841 62.5734 22.242 62.1061 22.7558 61.7713C23.2728 61.4332 23.876 61.2642 24.5654 61.2642C24.9632 61.2642 25.3559 61.3305 25.7437 61.4631C26.1315 61.5956 26.4845 61.8111 26.8026 62.1094C27.1208 62.4044 27.3744 62.7955 27.5633 63.2827C27.7522 63.7699 27.8467 64.3698 27.8467 65.0824V65.5795H21.9603V64.5653H26.6535C26.6535 64.1345 26.5673 63.75 26.395 63.4119C26.2259 63.0739 25.984 62.8071 25.6691 62.6115C25.3576 62.416 24.9897 62.3182 24.5654 62.3182C24.0981 62.3182 23.6937 62.4342 23.3524 62.6662C23.0143 62.8949 22.7541 63.1932 22.5718 63.5611C22.3895 63.929 22.2984 64.3234 22.2984 64.7443V65.4205C22.2984 65.9972 22.3978 66.486 22.5967 66.8871C22.7989 67.2848 23.0789 67.5881 23.4369 67.7969C23.7948 68.0024 24.2108 68.1051 24.6847 68.1051C24.993 68.1051 25.2714 68.062 25.52 67.9759C25.7719 67.8864 25.989 67.7538 26.1713 67.5781C26.3535 67.3991 26.4944 67.1771 26.5938 66.9119L27.7274 67.2301C27.608 67.6146 27.4075 67.9526 27.1258 68.2443C26.8441 68.5327 26.4961 68.7581 26.0818 68.9205C25.6675 69.0795 25.2018 69.1591 24.6847 69.1591Z" fill="white"/>
<path d="M32.8332 69.1591C32.0974 69.1591 31.4627 68.9967 30.9291 68.6719C30.3988 68.3438 29.9894 67.8864 29.7011 67.2997C29.416 66.7098 29.2735 66.0237 29.2735 65.2415C29.2735 64.4593 29.416 63.7699 29.7011 63.1733C29.9894 62.5734 30.3905 62.1061 30.9042 61.7713C31.4213 61.4332 32.0245 61.2642 32.7139 61.2642C33.1116 61.2642 33.5044 61.3305 33.8921 61.4631C34.2799 61.5956 34.6329 61.8111 34.9511 62.1094C35.2693 62.4044 35.5228 62.7955 35.7117 63.2827C35.9007 63.7699 35.9951 64.3698 35.9951 65.0824V65.5795H30.1088V64.5653H34.8019C34.8019 64.1345 34.7158 63.75 34.5434 63.4119C34.3744 63.0739 34.1324 62.8071 33.8176 62.6115C33.506 62.416 33.1381 62.3182 32.7139 62.3182C32.2465 62.3182 31.8422 62.4342 31.5008 62.6662C31.1627 62.8949 30.9026 63.1932 30.7203 63.5611C30.538 63.929 30.4468 64.3234 30.4468 64.7443V65.4205C30.4468 65.9972 30.5463 66.486 30.7451 66.8871C30.9473 67.2848 31.2274 67.5881 31.5853 67.7969C31.9433 68.0024 32.3592 68.1051 32.8332 68.1051C33.1414 68.1051 33.4198 68.062 33.6684 67.9759C33.9203 67.8864 34.1374 67.7538 34.3197 67.5781C34.502 67.3991 34.6428 67.1771 34.7423 66.9119L35.8758 67.2301C35.7565 67.6146 35.556 67.9526 35.2742 68.2443C34.9925 68.5327 34.6445 68.7581 34.2302 68.9205C33.8159 69.0795 33.3502 69.1591 32.8332 69.1591Z" fill="white"/>
<path d="M38.9532 64.4062V69H37.7799V61.3636H38.9134V62.5568H39.0129C39.1919 62.169 39.4636 61.8575 39.8282 61.6222C40.1928 61.3835 40.6634 61.2642 41.2401 61.2642C41.7572 61.2642 42.2096 61.3703 42.5974 61.5824C42.9852 61.7912 43.2868 62.1094 43.5022 62.5369C43.7177 62.9612 43.8254 63.4981 43.8254 64.1477V69H42.6521V64.2273C42.6521 63.6274 42.4963 63.16 42.1847 62.8253C41.8732 62.4872 41.4456 62.3182 40.9021 62.3182C40.5276 62.3182 40.1928 62.3994 39.8978 62.5618C39.6061 62.7242 39.3758 62.9612 39.2068 63.2727C39.0377 63.5843 38.9532 63.9621 38.9532 64.4062Z" fill="white"/>
<path d="M46.1285 69V58.8182H47.3614V67.9062H52.0944V69H46.1285Z" fill="white"/>
<path d="M53.8444 69V61.3636H55.0177V69H53.8444ZM54.441 60.0909C54.2123 60.0909 54.0151 60.013 53.8493 59.8572C53.6869 59.7015 53.6057 59.5142 53.6057 59.2955C53.6057 59.0767 53.6869 58.8894 53.8493 58.7337C54.0151 58.5779 54.2123 58.5 54.441 58.5C54.6697 58.5 54.8652 58.5779 55.0276 58.7337C55.1933 58.8894 55.2762 59.0767 55.2762 59.2955C55.2762 59.5142 55.1933 59.7015 55.0276 59.8572C54.8652 60.013 54.6697 60.0909 54.441 60.0909Z" fill="white"/>
<path d="M60.5672 61.3636V62.358H56.4507V61.3636H60.5672ZM57.6837 69V60.3097C57.6837 59.8722 57.7864 59.5076 57.9919 59.2159C58.1974 58.9242 58.4642 58.7055 58.7923 58.5597C59.1205 58.4138 59.4668 58.3409 59.8314 58.3409C60.1198 58.3409 60.3551 58.3641 60.5374 58.4105C60.7197 58.4569 60.8556 58.5 60.945 58.5398L60.607 59.554C60.5473 59.5341 60.4645 59.5092 60.3584 59.4794C60.2557 59.4496 60.1198 59.4347 59.9507 59.4347C59.5629 59.4347 59.2829 59.5324 59.1105 59.728C58.9415 59.9235 58.857 60.2102 58.857 60.5881V69H57.6837Z" fill="white"/>
<path d="M65.0988 69.1591C64.363 69.1591 63.7283 68.9967 63.1947 68.6719C62.6644 68.3438 62.2551 67.8864 61.9667 67.2997C61.6817 66.7098 61.5392 66.0237 61.5392 65.2415C61.5392 64.4593 61.6817 63.7699 61.9667 63.1733C62.2551 62.5734 62.6561 62.1061 63.1698 61.7713C63.6869 61.4332 64.2901 61.2642 64.9795 61.2642C65.3772 61.2642 65.77 61.3305 66.1578 61.4631C66.5455 61.5956 66.8985 61.8111 67.2167 62.1094C67.5349 62.4044 67.7884 62.7955 67.9774 63.2827C68.1663 63.7699 68.2607 64.3698 68.2607 65.0824V65.5795H62.3744V64.5653H67.0676C67.0676 64.1345 66.9814 63.75 66.809 63.4119C66.64 63.0739 66.3981 62.8071 66.0832 62.6115C65.7716 62.416 65.4037 62.3182 64.9795 62.3182C64.5122 62.3182 64.1078 62.4342 63.7664 62.6662C63.4284 62.8949 63.1682 63.1932 62.9859 63.5611C62.8036 63.929 62.7124 64.3234 62.7124 64.7443V65.4205C62.7124 65.9972 62.8119 66.486 63.0107 66.8871C63.2129 67.2848 63.493 67.5881 63.8509 67.7969C64.2089 68.0024 64.6248 68.1051 65.0988 68.1051C65.407 68.1051 65.6855 68.062 65.934 67.9759C66.1859 67.8864 66.403 67.7538 66.5853 67.5781C66.7676 67.3991 66.9085 67.1771 67.0079 66.9119L68.1414 67.2301C68.0221 67.6146 67.8216 67.9526 67.5399 68.2443C67.2581 68.5327 66.9101 68.7581 66.4958 68.9205C66.0815 69.0795 65.6159 69.1591 65.0988 69.1591Z" fill="white"/>
</svg>
